Coordinates
version=1
nRows=20
nColumns=38
inDegrees=no

Units are S.I. units (second, meters, Newtons, ...)
If the header above contains a line with 'inDegrees', this indicates whether rotational values are in degrees (yes) or radians (no).

endheader
time	pelvis_tilt	pelvis_list	pelvis_rotation	pelvis_tx	pelvis_ty	pelvis_tz	hip_flexion_r	hip_adduction_r	hip_rotation_r	knee_angle_r	ankle_angle_r	subtalar_angle_r	mtp_angle_r	hip_flexion_l	hip_adduction_l	hip_rotation_l	knee_angle_l	ankle_angle_l	subtalar_angle_l	mtp_angle_l	lumbar_extension	lumbar_bending	lumbar_rotation	arm_flex_r	arm_add_r	arm_rot_r	elbow_flex_r	pro_sup_r	wrist_flex_r	wrist_dev_r	arm_flex_l	arm_add_l	arm_rot_l	elbow_flex_l	pro_sup_l	wrist_flex_l	wrist_dev_l
0.96	0.0598877	1.23152	-1.47278	0.678298	0.426297	1.10456	-0.108128	0.0641823	-0.0605836	0.494841	-0.178355	0	0	-0.0920483	-0.23777	-0.199065	1.27893	-0.33146	0	0	-0.418691	0.0760178	-0.101116	0.4921	-0.523866	0.53885	1.17208	0.65426	0	0	0.249438	-0.444524	0.0877513	1.24209	0.843793	0	0
0.97	0.068269	1.23295	-1.48145	0.679684	0.415262	1.10654	-0.121383	0.0595988	-0.0672884	0.490046	-0.177097	0	0	-0.0707983	-0.233412	-0.204085	1.26988	-0.316098	0	0	-0.420262	0.0716124	-0.100164	0.492663	-0.523389	0.53884	1.17032	0.653383	0	0	0.251339	-0.443643	0.0888407	1.23983	0.84561	0	0
0.98	0.0764468	1.23457	-1.49012	0.681088	0.404395	1.10833	-0.13411	0.0549536	-0.0751612	0.484562	-0.176078	0	0	-0.0511231	-0.228931	-0.210911	1.25616	-0.291844	0	0	-0.421973	0.0672279	-0.0989429	0.493187	-0.522241	0.537448	1.16845	0.653941	0	0	0.253929	-0.443227	0.0903591	1.23756	0.848079	0	0
0.99	0.0839599	1.23624	-1.49865	0.682417	0.393688	1.1099	-0.145999	0.0507212	-0.0836846	0.479555	-0.175815	0	0	-0.0328939	-0.224651	-0.219327	1.2372	-0.271559	0	0	-0.424031	0.0629411	-0.0973386	0.493951	-0.520972	0.535541	1.16702	0.654783	0	0	0.25694	-0.443332	0.0919359	1.23571	0.849182	0	0
1	0.0914692	1.23805	-1.50755	0.683723	0.383098	1.11125	-0.157463	0.0465924	-0.0923398	0.474276	-0.175814	0	0	-0.0159138	-0.219954	-0.228527	1.21343	-0.249282	0	0	-0.426151	0.0584888	-0.0953346	0.494613	-0.519528	0.53291	1.16592	0.657144	0	0	0.2605	-0.443644	0.0937001	1.23388	0.850229	0	0
1.01	0.0994091	1.23995	-1.51709	0.68509	0.372631	1.11238	-0.168644	0.0420079	-0.100619	0.470371	-0.174577	0	0	4.53239e-05	-0.214855	-0.238585	1.18525	-0.233798	0	0	-0.42839	0.0540147	-0.0934767	0.495751	-0.518064	0.53044	1.16508	0.659764	0	0	0.263991	-0.443999	0.0947812	1.2326	0.850803	0	0
1.02	0.108283	1.24216	-1.52751	0.686574	0.362281	1.11324	-0.179279	0.0371115	-0.107908	0.466998	-0.172036	0	0	0.0153585	-0.208931	-0.24874	1.15317	-0.224027	0	0	-0.430449	0.0495359	-0.0922295	0.497644	-0.516357	0.52849	1.16426	0.66223	0	0	0.267197	-0.444719	0.0953345	1.23204	0.851127	0	0
1.03	0.11857	1.24491	-1.53916	0.688176	0.352023	1.11379	-0.188078	0.0318454	-0.114636	0.466059	-0.166459	0	0	0.0301964	-0.201652	-0.258108	1.11748	-0.218411	0	0	-0.432164	0.0448521	-0.0914176	0.498058	-0.512772	0.522063	1.16366	0.674741	0	0	0.270352	-0.445566	0.0954637	1.23215	0.851419	0	0
1.04	0.128122	1.24768	-1.55037	0.68979	0.341818	1.11405	-0.196354	0.0271043	-0.119184	0.466608	-0.15624	0	0	0.0435137	-0.194041	-0.266982	1.07851	-0.213564	0	0	-0.433152	0.0406766	-0.0920873	0.504214	-0.511514	0.527071	1.16141	0.670867	0	0	0.271686	-0.446713	0.0930332	1.23285	0.851544	0	0
1.05	0.13615	1.25022	-1.56024	0.691472	0.331651	1.11407	-0.204871	0.022881	-0.121841	0.467031	-0.149336	0	0	0.0547866	-0.186444	-0.275135	1.03703	-0.207012	0	0	-0.43461	0.037258	-0.091701	0.508789	-0.510489	0.528954	1.1609	0.670866	0	0	0.274064	-0.448033	0.092126	1.23349	0.851288	0	0
1.06	0.142972	1.25246	-1.56901	0.693271	0.321501	1.11392	-0.213977	0.0193179	-0.122713	0.467056	-0.142784	0	0	0.0638468	-0.178504	-0.282543	0.993009	-0.199657	0	0	-0.436275	0.0345308	-0.0910965	0.513442	-0.50985	0.530706	1.16086	0.670555	0	0	0.276555	-0.449214	0.091289	1.23413	0.850828	0	0
1.07	0.148371	1.25494	-1.57649	0.695168	0.311261	1.11353	-0.223099	0.0165767	-0.122275	0.466507	-0.136609	0	0	0.0716542	-0.170434	-0.289752	0.947014	-0.192522	0	0	-0.437418	0.0325084	-0.0904296	0.517925	-0.509394	0.532416	1.16125	0.670415	0	0	0.278507	-0.450044	0.0897918	1.23505	0.85018	0	0
1.08	0.15142	1.25748	-1.58179	0.697121	0.300916	1.11294	-0.232188	0.0146124	-0.121189	0.465782	-0.13061	0	0	0.0779536	-0.162894	-0.296809	0.899092	-0.185982	0	0	-0.438129	0.0313435	-0.0895433	0.522044	-0.508784	0.533682	1.16187	0.670387	0	0	0.280012	-0.450829	0.0881094	1.23622	0.849625	0	0
1.09	0.152833	1.2594	-1.58577	0.699002	0.290498	1.11225	-0.241383	0.0129541	-0.120089	0.466462	-0.122726	0	0	0.0815468	-0.155436	-0.302523	0.847572	-0.180103	0	0	-0.439194	0.0303727	-0.088346	0.525971	-0.507478	0.534172	1.16198	0.67143	0	0	0.281311	-0.451979	0.0864671	1.23777	0.849154	0	0
1.1	0.15225	1.26157	-1.58834	0.700826	0.279994	1.11139	-0.250038	0.0117922	-0.117611	0.467751	-0.115955	0	0	0.0837499	-0.148552	-0.307087	0.793484	-0.174152	0	0	-0.439859	0.0297274	-0.0862958	0.52969	-0.506393	0.534581	1.1618	0.674811	0	0	0.282607	-0.453217	0.0852237	1.23941	0.848693	0	0
1.11	0.15105	1.26428	-1.59002	0.702929	0.269434	1.11031	-0.257407	0.0101558	-0.116323	0.471173	-0.104822	0	0	0.0853055	-0.141048	-0.308531	0.736767	-0.168851	0	0	-0.439306	0.029742	-0.0854007	0.535719	-0.505966	0.539691	1.16038	0.671896	0	0	0.282465	-0.45399	0.0823505	1.24124	0.848612	0	0
1.12	0.14877	1.26827	-1.5904	0.705256	0.258779	1.10892	-0.263029	0.00864688	-0.115945	0.474968	-0.0996454	0	0	0.0876002	-0.133722	-0.307488	0.678997	-0.162047	0	0	-0.43752	0.0303266	-0.0834182	0.538769	-0.505986	0.540205	1.16087	0.671798	0	0	0.283161	-0.454233	0.0812239	1.24283	0.847954	0	0
1.13	0.145935	1.27328	-1.59017	0.707655	0.24804	1.10726	-0.266738	0.00699247	-0.116061	0.480775	-0.0906429	0	0	0.0902209	-0.126692	-0.303786	0.619704	-0.157897	0	0	-0.434199	0.0309885	-0.0820041	0.542262	-0.505618	0.541974	1.16038	0.671905	0	0	0.282911	-0.454471	0.0792197	1.24465	0.848017	0	0
1.14	0.142344	1.27892	-1.58928	0.71004	0.237195	1.10541	-0.269276	0.00552566	-0.116399	0.487487	-0.0822474	0	0	0.0928127	-0.120649	-0.298906	0.560108	-0.153951	0	0	-0.430095	0.0315438	-0.080245	0.544785	-0.505047	0.542663	1.16014	0.67276	0	0	0.28264	-0.454878	0.0775165	1.24659	0.848251	0	0
1.15	0.139139	1.28485	-1.58885	0.712466	0.226242	1.10344	-0.271083	0.00376509	-0.117362	0.495008	-0.0735548	0	0	0.094646	-0.114893	-0.292845	0.499941	-0.148735	0	0	-0.425489	0.0317464	-0.0783247	0.546345	-0.504134	0.542076	1.16012	0.673604	0	0	0.282319	-0.455301	0.0759832	1.24854	0.848191	0	0
